<svg xmlns="http://www.w3.org/2000/svg" viewBox="0 0 18.56 18.56"><defs><style>.cls-1{fill:#fff;fill-rule:evenodd;}</style></defs><title>arrow</title><g id="Слой_2" data-name="Слой 2"><g id="Слой_1-2" data-name="Слой 1"><path class="cls-1" d="M18.56,9.28a9.28,9.28,0,1,0-9.28,9.28A9.28,9.28,0,0,0,18.56,9.28ZM9.28,17.56a8.28,8.28,0,1,1,8.28-8.28A8.28,8.28,0,0,1,9.28,17.56Z"/><path class="cls-1" d="M14,9.13A.4.4,0,0,0,13.89,9L11.52,6.64a.4.4,0,0,0-.28-.12.39.39,0,0,0-.15,0,.39.39,0,0,0-.21.21.39.39,0,0,0,0,.15A.4.4,0,0,0,11,7.2l1.69,1.69H4.95a.39.39,0,1,0,0,.79h7.71L11,11.36a.39.39,0,0,0,0,.56.39.39,0,0,0,.43.09.39.39,0,0,0,.13-.09l2.36-2.36A.4.4,0,0,0,14,9.43a.39.39,0,0,0,0-.3Z"/></g></g></svg>