<svg xmlns="http://www.w3.org/2000/svg" viewBox="0 0 24.48 11.37"><defs><style>.cls-1{fill:#333;fill-rule:evenodd;}</style></defs><title>arrow</title><g id="Слой_2" data-name="Слой 2"><g id="Слой_1-2" data-name="Слой 1"><path class="cls-1" d="M24.42,5.37a.82.82,0,0,0-.18-.26L19.37.24A.81.81,0,0,0,18,.81a.82.82,0,0,0,.24.57l3.48,3.48H.81a.81.81,0,1,0,0,1.62h20.9L18.23,10a.82.82,0,0,0-.18.26.81.81,0,0,0-.06.31.81.81,0,0,0,.24.58.81.81,0,0,0,1.15,0l4.87-4.87A.82.82,0,0,0,24.42,6a.81.81,0,0,0,0-.62Z"/></g></g></svg>