<svg xmlns="http://www.w3.org/2000/svg" viewBox="0 0 42 42"><defs><style>.cls-1{fill:none;stroke:#fff;stroke-miterlimit:10;stroke-width:2px;}.cls-2{fill:#fff;}</style></defs><title>insta</title><g id="Слой_2" data-name="Слой 2"><g id="Слой_1-2" data-name="Слой 1"><circle class="cls-1" cx="21" cy="21" r="20"/><path class="cls-2" d="M25.88,11.15H16.12a5,5,0,0,0-5,5v9.76a5,5,0,0,0,5,5h9.77a5,5,0,0,0,5-5V16.12A5,5,0,0,0,25.88,11.15ZM21,25a4,4,0,1,1,4-4A4,4,0,0,1,21,25ZM26.24,17a1.2,1.2,0,1,1,1.2-1.2A1.2,1.2,0,0,1,26.24,17Z"/></g></g></svg>