<svg xmlns="http://www.w3.org/2000/svg" viewBox="0 0 42 42"><defs><style>.cls-1{fill:none;stroke:#fff;stroke-miterlimit:10;stroke-width:2px;}.cls-2{fill:#fff;}</style></defs><title>youtube</title><g id="Слой_2" data-name="Слой 2"><g id="Слой_1-2" data-name="Слой 1"><circle class="cls-1" cx="21" cy="21" r="20"/><path class="cls-2" d="M29.62,13.71c-1.72-.47-8.62-.47-8.62-.47s-6.89,0-8.62.45a2.82,2.82,0,0,0-1.94,2,29.06,29.06,0,0,0-.45,5.3,29,29,0,0,0,.45,5.3,2.76,2.76,0,0,0,1.94,1.94c1.74.47,8.62.47,8.62.47s6.89,0,8.62-.45a2.76,2.76,0,0,0,1.94-1.94A29.08,29.08,0,0,0,32,21a27.6,27.6,0,0,0-.45-5.31A2.76,2.76,0,0,0,29.62,13.71ZM18.27,24.86V17l6.79,3.91Z"/></g></g></svg>