<svg xmlns="http://www.w3.org/2000/svg" viewBox="0 0 16 16"><defs><style>.cls-1{fill:#303030;}</style></defs><title>home</title><g id="Слой_2" data-name="Слой 2"><g id="Слой_1-2" data-name="Слой 1"><path class="cls-1" d="M16,6.39h0a2.39,2.39,0,0,0-1-1.89h0L9.89.63h0a3.19,3.19,0,0,0-3.81,0h0L1,4.51H1A2.37,2.37,0,0,0,0,6.4H0v6.44A3.24,3.24,0,0,0,3.31,16h1.5a1.56,1.56,0,0,0,1.56-1.37.6.6,0,0,0,0-.15V12.21a.47.47,0,0,1,.5-.43H9.14a.47.47,0,0,1,.5.43v2.27h0A1.54,1.54,0,0,0,11.18,16h1.51A3.24,3.24,0,0,0,16,12.85V6.4Zm-3.31,8.37H11.2a.32.32,0,0,1-.33-.28V12.21a1.7,1.7,0,0,0-1.73-1.66H6.89a1.7,1.7,0,0,0-1.72,1.66V14.4a.59.59,0,0,0,0,.07.32.32,0,0,1-.35.29H3.31a2,2,0,0,1-2.08-1.92V6.41a1.15,1.15,0,0,1,.49-.91h0L6.83,1.61h0a2,2,0,0,1,2.33,0l5.11,3.87h0a1.16,1.16,0,0,1,.49.92v6.43A2,2,0,0,1,12.68,14.77Z"/></g></g></svg>