<svg xmlns="http://www.w3.org/2000/svg" viewBox="0 0 14.1 16"><defs><style>.cls-1{fill:#f0f0f0;}</style></defs><title>map</title><g id="Слой_2" data-name="Слой 2"><g id="Слой_1-2" data-name="Слой 1"><path class="cls-1" d="M9.93,10.41l.69-1.08.69-1.08a5.17,5.17,0,0,0,1-3,5.21,5.21,0,1,0-10.42,0,5.16,5.16,0,0,0,1,3l1.36,2.13C2.95,10.62,0,11.32,0,13.09c0,.63.4,1.53,2.29,2.2A14.67,14.67,0,0,0,7.05,16c3.5,0,7.05-1,7.05-2.91S11.16,10.62,9.93,10.41Zm-1.3-.25L7.05,12.64l-3.2-5,0,0a4,4,0,0,1-.76-2.33,4,4,0,1,1,8,0,4,4,0,0,1-.73,2.29ZM4.9,11.54l1.64,2.57a.61.61,0,0,0,1,0L9.2,11.54c2.59.34,3.67,1.17,3.67,1.55,0,.57-2.06,1.68-5.82,1.68s-5.82-1.11-5.82-1.68C1.23,12.71,2.31,11.88,4.9,11.54Z"/><circle class="cls-1" cx="7.05" cy="5.24" r="0.87"/></g></g></svg>